<svg xmlns="http://www.w3.org/2000/svg" xmlns:xlink="http://www.w3.org/1999/xlink" contentStyleType="text/css" data-diagram-type="DESCRIPTION" height="752px" preserveAspectRatio="none" style="width:1577px;height:752px;background:#FFFFFF;" version="1.1" viewBox="0 0 1577 752" width="1577px" zoomAndPan="magnify"><defs/><g><!--cluster Parkinson's Disease Detection System--><g class="cluster" data-entity="Parkinson's Disease Detection System" data-source-line="17" data-uid="ent0005" id="cluster_Parkinson's Disease Detection System"><rect fill="#FFFFFF" height="725" rx="2.5" ry="2.5" style="stroke:#000000;stroke-width:1;" width="1282.19" x="289.8" y="21.18"/><text fill="#000000" font-family="sans-serif" font-size="20" font-weight="bold" lengthAdjust="spacing" textLength="431.9531" x="714.9184" y="41.7445">Parkinson's Disease Detection System</text></g><!--entity UC1--><g class="entity" data-entity="UC1" data-source-line="19" data-uid="ent0006" id="entity_UC1"><ellipse cx="438.2529" cy="90.1786" fill="#FFFFFF" rx="124.2929" ry="27.2586" style="stroke:#000000;stroke-width:1;"/><text fill="#000000" font-family="sans-serif" font-size="20" lengthAdjust="spacing" textLength="212.832" x="331.8369" y="98.3192">Record Voice Sample</text></g><!--entity UC2--><g class="entity" data-entity="UC2" data-source-line="20" data-uid="ent0007" id="entity_UC2"><ellipse cx="438.253" cy="179.1846" fill="#FFFFFF" rx="124.173" ry="27.2346" style="stroke:#000000;stroke-width:1;"/><text fill="#000000" font-family="sans-serif" font-size="20" lengthAdjust="spacing" textLength="212.5586" x="331.9737" y="187.3252">Upload Voice Sample</text></g><!--entity UC3--><g class="entity" data-entity="UC3" data-source-line="21" data-uid="ent0008" id="entity_UC3"><ellipse cx="929.7278" cy="304.1796" fill="#FFFFFF" rx="130.3978" ry="28.4796" style="stroke:#000000;stroke-width:1;"/><text fill="#000000" font-family="sans-serif" font-size="20" lengthAdjust="spacing" textLength="226.6504" x="816.4026" y="312.3202">Extract Voice Features</text></g><!--entity UC5--><g class="entity" data-entity="UC5" data-source-line="22" data-uid="ent0009" id="entity_UC5"><ellipse cx="1422.3724" cy="145.1845" fill="#FFFFFF" rx="133.6224" ry="29.1245" style="stroke:#000000;stroke-width:1;"/><text fill="#000000" font-family="sans-serif" font-size="20" lengthAdjust="spacing" textLength="233.877" x="1305.4339" y="153.3251">View Prediction Results</text></g><!--entity UC6--><g class="entity" data-entity="UC6" data-source-line="23" data-uid="ent0010" id="entity_UC6"><ellipse cx="438.2468" cy="262.1834" fill="#FFFFFF" rx="89.7168" ry="20.3434" style="stroke:#000000;stroke-width:1;"/><text fill="#000000" font-family="sans-serif" font-size="20" lengthAdjust="spacing" textLength="128.5645" x="373.9646" y="270.324">Save Results</text></g><!--entity UC7--><g class="entity" data-entity="UC7" data-source-line="24" data-uid="ent0011" id="entity_UC7"><ellipse cx="438.2533" cy="346.1827" fill="#FFFFFF" rx="131.5633" ry="28.7127" style="stroke:#000000;stroke-width:1;"/><text fill="#000000" font-family="sans-serif" font-size="20" lengthAdjust="spacing" textLength="229.2676" x="323.6195" y="354.3233">Manage User Accounts</text></g><!--entity UC8--><g class="entity" data-entity="UC8" data-source-line="25" data-uid="ent0012" id="entity_UC8"><ellipse cx="438.2522" cy="439.1804" fill="#FFFFFF" rx="132.4522" ry="28.8904" style="stroke:#000000;stroke-width:1;"/><text fill="#000000" font-family="sans-serif" font-size="20" lengthAdjust="spacing" textLength="231.2598" x="322.6223" y="447.3211">Train/Update ML Model</text></g><!--entity UC9--><g class="entity" data-entity="UC9" data-source-line="26" data-uid="ent0013" id="entity_UC9"><ellipse cx="438.2538" cy="623.1848" fill="#FFFFFF" rx="130.5238" ry="28.5048" style="stroke:#000000;stroke-width:1;"/><text fill="#000000" font-family="sans-serif" font-size="20" lengthAdjust="spacing" textLength="226.9336" x="324.787" y="631.3254">View Detailed Analysis</text></g><!--entity UC10--><g class="entity" data-entity="UC10" data-source-line="27" data-uid="ent0014" id="entity_UC10"><ellipse cx="438.2495" cy="708.1799" fill="#FFFFFF" rx="95.9495" ry="21.5899" style="stroke:#000000;stroke-width:1;"/><text fill="#000000" font-family="sans-serif" font-size="20" lengthAdjust="spacing" textLength="144.9414" x="365.7788" y="716.3205">Export Results</text></g><!--entity UC11--><g class="entity" data-entity="UC11" data-source-line="28" data-uid="ent0015" id="entity_UC11"><ellipse cx="438.2531" cy="531.1826" fill="#FFFFFF" rx="128.7631" ry="28.1526" style="stroke:#000000;stroke-width:1;"/><text fill="#000000" font-family="sans-serif" font-size="20" lengthAdjust="spacing" textLength="222.9688" x="326.7688" y="539.3233">Access Historical Data</text></g><!--entity UCE1--><g class="entity" data-entity="UCE1" data-source-line="49" data-uid="ent0029" id="entity_UCE1"><ellipse cx="929.734" cy="106.1848" fill="#FFFFFF" rx="201.024" ry="42.6048" style="stroke:#000000;stroke-width:1;"/><text fill="#000000" font-family="sans-serif" font-size="20" lengthAdjust="spacing" textLength="378.5547" x="740.4567" y="114.3254">Provide Guidance for Voice Recording</text></g><!--entity UCE2--><g class="entity" data-entity="UCE2" data-source-line="50" data-uid="ent0030" id="entity_UCE2"><ellipse cx="929.7341" cy="212.1808" fill="#FFFFFF" rx="128.8541" ry="28.1708" style="stroke:#000000;stroke-width:1;"/><text fill="#000000" font-family="sans-serif" font-size="20" lengthAdjust="spacing" textLength="223.1738" x="818.1471" y="220.3214">Validate Audio Quality</text></g><!--entity user--><g class="entity" data-entity="user" data-source-line="12" data-uid="ent0002" id="entity_user"><ellipse cx="124.403" cy="146.04" fill="#FFFFFF" rx="8" ry="8" style="stroke:#000000;stroke-width:1;"/><path d="M124.403,154.04 L124.403,181.04 M111.403,162.04 L137.403,162.04 M124.403,181.04 L111.403,196.04 M124.403,181.04 L137.403,196.04" fill="none" style="stroke:#000000;stroke-width:1;"/><text fill="#000000" font-family="sans-serif" font-size="20" lengthAdjust="spacing" textLength="45.5859" x="101.61" y="216.6045">User</text></g><!--entity admin--><g class="entity" data-entity="admin" data-source-line="13" data-uid="ent0003" id="entity_admin"><ellipse cx="124.3935" cy="360.04" fill="#FFFFFF" rx="8" ry="8" style="stroke:#000000;stroke-width:1;"/><path d="M124.3935,368.04 L124.3935,395.04 M111.3935,376.04 L137.3935,376.04 M124.3935,395.04 L111.3935,410.04 M124.3935,395.04 L137.3935,410.04" fill="none" style="stroke:#000000;stroke-width:1;"/><text fill="#000000" font-family="sans-serif" font-size="20" lengthAdjust="spacing" textLength="217.627" x="15.58" y="430.6045">System Administrator</text></g><!--entity doctor--><g class="entity" data-entity="doctor" data-source-line="14" data-uid="ent0004" id="entity_doctor"><ellipse cx="124.3984" cy="590.04" fill="#FFFFFF" rx="8" ry="8" style="stroke:#000000;stroke-width:1;"/><path d="M124.3984,598.04 L124.3984,625.04 M111.3984,606.04 L137.3984,606.04 M124.3984,625.04 L111.3984,640.04 M124.3984,625.04 L137.3984,640.04" fill="none" style="stroke:#000000;stroke-width:1;"/><text fill="#000000" font-family="sans-serif" font-size="20" lengthAdjust="spacing" textLength="236.7969" x="6" y="660.6045">Healthcare Professional</text></g><!--link user to UC1--><g class="link" data-entity-1="user" data-entity-2="UC1" data-source-line="31" data-uid="lnk16" id="link_user_UC1"><path d="M147.66,172.74 C177.99,163.98 233.98,147.83 281.8,134.18 C307.42,126.87 329.6565,120.5531 354.7565,113.4531" fill="none" id="user-to-UC1" style="stroke:#000000;stroke-width:1;"/><polygon fill="#000000" points="360.53,111.82,350.7811,110.4207,355.7188,113.1809,352.9586,118.1187,360.53,111.82" style="stroke:#000000;stroke-width:1;"/></g><!--link user to UC2--><g class="link" data-entity-1="user" data-entity-2="UC2" data-source-line="32" data-uid="lnk17" id="link_user_UC2"><path d="M147.33,179.18 C181.85,179.18 245.36,179.18 307.67,179.18" fill="none" id="user-to-UC2" style="stroke:#000000;stroke-width:1;"/><polygon fill="#000000" points="313.67,179.18,304.67,175.18,308.67,179.18,304.67,183.18,313.67,179.18" style="stroke:#000000;stroke-width:1;"/></g><!--link user to UC5--><g class="link" data-entity-1="user" data-entity-2="UC5" data-source-line="33" data-uid="lnk18" id="link_user_UC5"><path d="M147.67,150.53 C175.12,117.82 225.12,66.14 281.8,45.18 C340.03,23.65 889.51,6 1130.75,46.18 C1213.69,60 1299.2422,92.0468 1356.9322,116.3968" fill="none" id="user-to-UC5" style="stroke:#000000;stroke-width:1;"/><polygon fill="#000000" points="1362.46,118.73,1355.7238,111.545,1357.8535,116.7857,1352.6129,118.9154,1362.46,118.73" style="stroke:#000000;stroke-width:1;"/></g><!--link user to UC6--><g class="link" data-entity-1="user" data-entity-2="UC6" data-source-line="34" data-uid="lnk19" id="link_user_UC6"><path d="M147.59,185.87 C177.84,194.92 233.74,211.4 281.8,224.18 C312.27,232.29 340.4461,239.268 368.8661,246.098" fill="none" id="user-to-UC6" style="stroke:#000000;stroke-width:1;"/><polygon fill="#000000" points="374.7,247.5,366.8838,241.5077,369.8384,246.3316,365.0145,249.2862,374.7,247.5" style="stroke:#000000;stroke-width:1;"/></g><!--link user to UC11--><g class="link" data-entity-1="user" data-entity-2="UC11" data-source-line="35" data-uid="lnk20" id="link_user_UC11"><path d="M147.57,201.98 C174.02,230.41 217.8,281.6 242.8,333.18 C273.21,395.94 233.39,434.97 281.8,485.18 C295.08,498.96 306.6657,506.5434 324.7557,513.3634" fill="none" id="user-to-UC11" style="stroke:#000000;stroke-width:1;"/><polygon fill="#000000" points="330.37,515.48,323.3597,508.5623,325.6914,513.7162,320.5375,516.0479,330.37,515.48" style="stroke:#000000;stroke-width:1;"/></g><!--link UC1 to UC3--><g class="link" data-entity-1="UC1" data-entity-2="UC3" data-source-line="37" data-uid="lnk21" id="link_UC1_UC3"><path d="M528.04,109.43 C543.39,115.56 558.36,123.61 570.7,134.18 C592.74,153.06 580.17,171.67 600.7,192.18 C645.99,237.41 668.6,236.17 728.7,258.18 C760.15,269.7 789.6219,277.6629 821.7319,284.7729" fill="none" id="UC1-to-UC3" style="stroke:#000000;stroke-width:1;stroke-dasharray:7.0,7.0;"/><polygon fill="#000000" points="827.59,286.07,819.6676,280.2189,822.7082,284.9891,817.9381,288.0297,827.59,286.07" style="stroke:#000000;stroke-width:1;"/><text fill="#000000" font-family="sans-serif" font-size="20" lengthAdjust="spacing" textLength="96.9336" x="601.7" y="186.7445">&#171;include&#187;</text></g><!--link UC2 to UC3--><g class="link" data-entity-1="UC2" data-entity-2="UC3" data-source-line="38" data-uid="lnk22" id="link_UC2_UC3"><path d="M530.99,197.56 C545.79,203.96 559.81,212.57 570.7,224.18 C605.38,261.13 560.43,303.42 600.7,334.18 C679.55,394.4 796.6354,361.4886 867.4954,332.5486" fill="none" id="UC2-to-UC3" style="stroke:#000000;stroke-width:1;stroke-dasharray:7.0,7.0;"/><polygon fill="#000000" points="873.05,330.28,863.2057,329.9798,868.4212,332.1705,866.2305,337.3859,873.05,330.28" style="stroke:#000000;stroke-width:1;"/><text fill="#000000" font-family="sans-serif" font-size="20" lengthAdjust="spacing" textLength="96.9336" x="601.7" y="328.7445">&#171;include&#187;</text></g><!--link UC3 to UC5--><g class="link" data-entity-1="UC3" data-entity-2="UC5" data-source-line="39" data-uid="lnk23" id="link_UC3_UC5"><path d="M1027.37,284.92 C1060.43,277.55 1097.46,268.42 1130.75,258.18 C1212.11,233.15 1297.6594,198.5801 1355.7994,173.8301" fill="none" id="UC3-to-UC5" style="stroke:#000000;stroke-width:1;stroke-dasharray:7.0,7.0;"/><polygon fill="#000000" points="1361.32,171.48,1351.4724,171.3248,1356.7195,173.4384,1354.6058,178.6856,1361.32,171.48" style="stroke:#000000;stroke-width:1;"/><text fill="#000000" font-family="sans-serif" font-size="20" lengthAdjust="spacing" textLength="96.9336" x="1161.75" y="210.7445">&#171;include&#187;</text></g><!--link admin to UC7--><g class="link" data-entity-1="admin" data-entity-2="UC7" data-source-line="41" data-uid="lnk24" id="link_admin_UC7"><path d="M233.59,376.87 C264.47,372.22 292.1669,368.0434 323.0469,363.3934" fill="none" id="admin-to-UC7" style="stroke:#000000;stroke-width:1;"/><polygon fill="#000000" points="328.98,362.5,319.4847,359.8847,324.0357,363.2445,320.676,367.7955,328.98,362.5" style="stroke:#000000;stroke-width:1;"/></g><!--link admin to UC8--><g class="link" data-entity-1="admin" data-entity-2="UC8" data-source-line="42" data-uid="lnk25" id="link_admin_UC8"><path d="M233.59,409.14 C263.94,413.62 291.0142,417.6147 321.4642,422.1047" fill="none" id="admin-to-UC8" style="stroke:#000000;stroke-width:1;"/><polygon fill="#000000" points="327.4,422.98,319.0798,417.7099,322.4535,422.2506,317.9128,425.6243,327.4,422.98" style="stroke:#000000;stroke-width:1;"/></g><!--link doctor to UC9--><g class="link" data-entity-1="doctor" data-entity-2="UC9" data-source-line="44" data-uid="lnk26" id="link_doctor_UC9"><path d="M243.3,623.18 C264.25,623.18 280.18,623.18 301.45,623.18" fill="none" id="doctor-to-UC9" style="stroke:#000000;stroke-width:1;"/><polygon fill="#000000" points="307.45,623.18,298.45,619.18,302.45,623.18,298.45,627.18,307.45,623.18" style="stroke:#000000;stroke-width:1;"/></g><!--link doctor to UC10--><g class="link" data-entity-1="doctor" data-entity-2="UC10" data-source-line="45" data-uid="lnk27" id="link_doctor_UC10"><path d="M243.1,658.35 C256.14,662.08 269.24,665.76 281.8,669.18 C311.19,677.19 338.0553,684.0401 365.8453,690.9101" fill="none" id="doctor-to-UC10" style="stroke:#000000;stroke-width:1;"/><polygon fill="#000000" points="371.67,692.35,363.893,686.307,366.8161,691.1501,361.9731,694.0732,371.67,692.35" style="stroke:#000000;stroke-width:1;"/></g><!--link doctor to UC11--><g class="link" data-entity-1="doctor" data-entity-2="UC11" data-source-line="46" data-uid="lnk28" id="link_doctor_UC11"><path d="M243.3,588.4 C282.45,576.85 319.2552,565.9879 354.5052,555.5879" fill="none" id="doctor-to-UC11" style="stroke:#000000;stroke-width:1;"/><polygon fill="#000000" points="360.26,553.89,350.496,552.6003,355.4644,555.3049,352.7598,560.2733,360.26,553.89" style="stroke:#000000;stroke-width:1;"/></g><!--reverse link UC1 to UCE1--><g class="link" data-entity-1="UC1" data-entity-2="UCE1" data-source-line="52" data-uid="lnk31" id="link_UC1_UCE1"><path d="M567.4968,94.3759 C618.6068,96.0459 673.33,97.83 730.52,99.7" fill="none" id="UC1-backto-UCE1" style="stroke:#000000;stroke-width:1;stroke-dasharray:7.0,7.0;"/><polygon fill="#000000" points="561.5,94.18,570.3646,98.4718,566.4973,94.3433,570.6258,90.476,561.5,94.18" style="stroke:#000000;stroke-width:1;"/><text fill="#000000" font-family="sans-serif" font-size="20" lengthAdjust="spacing" textLength="94.1309" x="602.7" y="90.7445">&#171;extend&#187;</text></g><!--reverse link UC1 to UCE2--><g class="link" data-entity-1="UC1" data-entity-2="UCE2" data-source-line="53" data-uid="lnk32" id="link_UC1_UCE2"><path d="M523.5047,113.0361 C581.6347,128.6461 657.06,148.54 728.7,166.18 C764.51,175 804.06,184.2 838.47,192.04" fill="none" id="UC1-backto-UCE2" style="stroke:#000000;stroke-width:1;stroke-dasharray:7.0,7.0;"/><polygon fill="#000000" points="517.71,111.48,525.3647,117.6773,522.5389,112.7767,527.4394,109.951,517.71,111.48" style="stroke:#000000;stroke-width:1;"/><text fill="#000000" font-family="sans-serif" font-size="20" lengthAdjust="spacing" textLength="94.1309" x="602.7" y="128.7445">&#171;extend&#187;</text></g><!--reverse link UC2 to UCE2--><g class="link" data-entity-1="UC2" data-entity-2="UCE2" data-source-line="54" data-uid="lnk33" id="link_UC2_UCE2"><path d="M532.8255,200.7118 C548.5155,207.0318 558.24,213.14 570.7,224.18 C593.61,244.48 574.77,269.92 600.7,286.18 C637.6,309.32 658.18,302.15 698.7,286.18 C715.67,279.49 712.6,266.74 728.7,258.18 C756.23,243.55 788.31,233.54 818.61,226.71" fill="none" id="UC2-backto-UCE2" style="stroke:#000000;stroke-width:1;stroke-dasharray:7.0,7.0;"/><polygon fill="#000000" points="527.26,198.47,534.1137,205.543,531.8979,200.3382,537.1027,198.1224,527.26,198.47" style="stroke:#000000;stroke-width:1;"/><text fill="#000000" font-family="sans-serif" font-size="20" lengthAdjust="spacing" textLength="94.1309" x="602.7" y="280.7445">&#171;extend&#187;</text></g><!--SRC=[VPDDR-8m48Rl-HKZBfnAsrJzeWY9xSVsKAGk5EvJUm2hnaQsqvPTzRztx2Hj0hkB8k5vvt4yVcUYQH4WM71gkGeWbICHb3NPm8Ujfc56cjPa0lp9W7y_KBmidIsClBRQkZwyhLIWgvIxioPKwhDcxbkTgj_KX_oeL1wKeNqkgayh9LuCUT-7uytxLVQH3GwhChfmGmj68Am8K0JhV9R-e3Fpv3g07WfUrE9qwmEjOIJNoYWV7BAQ88nAJTqJwh0Iw0WUdLtmoNnrr0cKDZ9P-sHVllOvEe1kcqMtq2mrGUSHtOiotfgkXnlb2Jtnpb3Q2MKzdMHZ5yQeJ2mN15EU9Lx79NGc9AoJCBTA44nnlT6KgfbT7pUnsKPR_2kMDx7RTxwv21LtHnWAHxuYJvhaND4RUq1IbVLEo1SwrEXf4vtYA-tapvhvCHfS4iIsm4W8jkgBEszoJuvTE9nj90Q2yGEChIHTWHTxjR6Lg3H96763jbxLhxnittTZNTWfxlYeYN15t6Quvw6mJWdKS8C1QpIQd3eq8OtH2BzIcwf13WuEXj-DgCEy7PwsmxETlTK1l89UBoedq8V1G1cX2qd3OShb_ycTLBdJlHm_QRYheyvtueiIASUwqYvtXUHLM_coX8U9JFn0MWFBtyshaWG_2oNHy9GjU6ivR-KiAxEitBrjZV0SjKgj7nLIMVXLS1osDPf_-pJezTBcT66AHSZAYwzSlf_B_v7x-0G0]--></g></svg>